<svg width="136" height="75" viewBox="0 0 136 75" fill="none" xmlns="http://www.w3.org/2000/svg">
<path d="M8.211 61.315C7.119 61.315 6.139 61.147 5.271 60.811C4.403 60.475 3.668 59.985 3.066 59.341C2.464 58.683 2.002 57.885 1.68 56.947C1.358 56.009 1.197 54.931 1.197 53.713C1.197 52.495 1.379 51.417 1.743 50.479C2.121 49.541 2.632 48.75 3.276 48.106C3.92 47.448 4.676 46.951 5.544 46.615C6.412 46.279 7.343 46.111 8.337 46.111C8.939 46.111 9.485 46.16 9.975 46.258C10.465 46.342 10.892 46.44 11.256 46.552C11.62 46.664 11.921 46.783 12.159 46.909C12.397 47.035 12.565 47.126 12.663 47.182L11.886 49.345C11.55 49.135 11.067 48.939 10.437 48.757C9.821 48.561 9.149 48.463 8.421 48.463C7.791 48.463 7.203 48.575 6.657 48.799C6.111 49.009 5.635 49.331 5.229 49.765C4.837 50.199 4.529 50.745 4.305 51.403C4.081 52.061 3.969 52.824 3.969 53.692C3.969 54.462 4.053 55.169 4.221 55.813C4.403 56.457 4.676 57.017 5.04 57.493C5.404 57.955 5.866 58.319 6.426 58.585C6.986 58.837 7.658 58.963 8.442 58.963C9.38 58.963 10.143 58.872 10.731 58.69C11.319 58.494 11.774 58.312 12.096 58.144L12.81 60.307C12.642 60.419 12.411 60.531 12.117 60.643C11.837 60.755 11.501 60.867 11.109 60.979C10.717 61.077 10.276 61.154 9.786 61.21C9.296 61.28 8.771 61.315 8.211 61.315ZM25.5852 46.447V48.736H21.1122V61H18.4452V48.736H13.9722V46.447H25.5852ZM31.7194 46.3C33.8334 46.3 35.4504 46.685 36.5704 47.455C37.7044 48.225 38.2714 49.429 38.2714 51.067C38.2714 51.921 38.1174 52.656 37.8094 53.272C37.5154 53.874 37.0814 54.371 36.5074 54.763C35.9334 55.141 35.2334 55.421 34.4074 55.603C33.5814 55.785 32.6364 55.876 31.5724 55.876H30.2494V61H27.6034V46.657C28.2194 46.517 28.8984 46.426 29.6404 46.384C30.3964 46.328 31.0894 46.3 31.7194 46.3ZM31.9084 48.589C31.2364 48.589 30.6834 48.61 30.2494 48.652V53.608H31.5304C32.8044 53.608 33.7844 53.433 34.4704 53.083C35.1564 52.719 35.4994 52.04 35.4994 51.046C35.4994 50.57 35.4084 50.171 35.2264 49.849C35.0444 49.527 34.7924 49.275 34.4704 49.093C34.1484 48.911 33.7634 48.785 33.3154 48.715C32.8814 48.631 32.4124 48.589 31.9084 48.589ZM42.8503 53.713C42.8503 54.511 42.9483 55.239 43.1443 55.897C43.3403 56.541 43.6203 57.094 43.9843 57.556C44.3623 58.004 44.8173 58.354 45.3493 58.606C45.8813 58.858 46.4833 58.984 47.1553 58.984C47.8133 58.984 48.4083 58.858 48.9403 58.606C49.4723 58.354 49.9203 58.004 50.2843 57.556C50.6623 57.094 50.9493 56.541 51.1453 55.897C51.3413 55.239 51.4393 54.511 51.4393 53.713C51.4393 52.915 51.3413 52.194 51.1453 51.55C50.9493 50.892 50.6623 50.339 50.2843 49.891C49.9203 49.429 49.4723 49.072 48.9403 48.82C48.4083 48.568 47.8133 48.442 47.1553 48.442C46.4833 48.442 45.8813 48.568 45.3493 48.82C44.8173 49.072 44.3623 49.429 43.9843 49.891C43.6203 50.353 43.3403 50.906 43.1443 51.55C42.9483 52.194 42.8503 52.915 42.8503 53.713ZM54.2113 53.713C54.2113 54.959 54.0223 56.058 53.6443 57.01C53.2803 57.962 52.7763 58.76 52.1323 59.404C51.5023 60.034 50.7603 60.51 49.9063 60.832C49.0523 61.154 48.1423 61.315 47.1763 61.315C46.2103 61.315 45.2933 61.154 44.4253 60.832C43.5713 60.51 42.8223 60.034 42.1783 59.404C41.5483 58.76 41.0443 57.962 40.6663 57.01C40.2883 56.058 40.0993 54.959 40.0993 53.713C40.0993 52.467 40.2883 51.375 40.6663 50.437C41.0443 49.485 41.5553 48.687 42.1993 48.043C42.8573 47.399 43.6133 46.916 44.4673 46.594C45.3213 46.272 46.2243 46.111 47.1763 46.111C48.1283 46.111 49.0313 46.272 49.8853 46.594C50.7393 46.916 51.4813 47.399 52.1113 48.043C52.7553 48.687 53.2663 49.485 53.6443 50.437C54.0223 51.375 54.2113 52.467 54.2113 53.713ZM57.1141 61V46.447H59.7391V56.107C60.2151 55.351 60.7541 54.539 61.3561 53.671C61.9721 52.789 62.6021 51.914 63.2461 51.046C63.9041 50.178 64.5551 49.345 65.1991 48.547C65.8431 47.735 66.4451 47.035 67.0051 46.447H69.1681V61H66.5641V50.584C65.9761 51.284 65.3531 52.075 64.6951 52.957C64.0511 53.825 63.4141 54.728 62.7841 55.666C62.1541 56.59 61.5451 57.514 60.9571 58.438C60.3691 59.348 59.8371 60.202 59.3611 61H57.1141ZM63.2881 45.103C62.8401 45.103 62.4201 45.04 62.0281 44.914C61.6501 44.788 61.3071 44.606 60.9991 44.368C60.6911 44.13 60.4391 43.843 60.2431 43.507C60.0471 43.157 59.9281 42.765 59.8861 42.331L61.7131 41.848C61.9511 42.842 62.4761 43.339 63.2881 43.339C64.1141 43.339 64.6391 42.849 64.8631 41.869L66.6691 42.352C66.6131 42.786 66.4871 43.178 66.2911 43.528C66.1091 43.864 65.8641 44.151 65.5561 44.389C65.2621 44.613 64.9191 44.788 64.5271 44.914C64.1351 45.04 63.7221 45.103 63.2881 45.103Z" fill="#FF7043"/>
<path d="M76.775 46.3C78.889 46.3 80.506 46.685 81.626 47.455C82.76 48.225 83.327 49.429 83.327 51.067C83.327 51.921 83.173 52.656 82.865 53.272C82.571 53.874 82.137 54.371 81.563 54.763C80.989 55.141 80.289 55.421 79.463 55.603C78.637 55.785 77.692 55.876 76.628 55.876H75.305V61H72.659V46.657C73.275 46.517 73.954 46.426 74.696 46.384C75.452 46.328 76.145 46.3 76.775 46.3ZM76.964 48.589C76.292 48.589 75.739 48.61 75.305 48.652V53.608H76.586C77.86 53.608 78.84 53.433 79.526 53.083C80.212 52.719 80.555 52.04 80.555 51.046C80.555 50.57 80.464 50.171 80.282 49.849C80.1 49.527 79.848 49.275 79.526 49.093C79.204 48.911 78.819 48.785 78.371 48.715C77.937 48.631 77.468 48.589 76.964 48.589ZM87.906 53.713C87.906 54.511 88.004 55.239 88.2 55.897C88.396 56.541 88.676 57.094 89.04 57.556C89.418 58.004 89.873 58.354 90.405 58.606C90.937 58.858 91.539 58.984 92.211 58.984C92.869 58.984 93.464 58.858 93.996 58.606C94.528 58.354 94.976 58.004 95.34 57.556C95.718 57.094 96.005 56.541 96.201 55.897C96.397 55.239 96.495 54.511 96.495 53.713C96.495 52.915 96.397 52.194 96.201 51.55C96.005 50.892 95.718 50.339 95.34 49.891C94.976 49.429 94.528 49.072 93.996 48.82C93.464 48.568 92.869 48.442 92.211 48.442C91.539 48.442 90.937 48.568 90.405 48.82C89.873 49.072 89.418 49.429 89.04 49.891C88.676 50.353 88.396 50.906 88.2 51.55C88.004 52.194 87.906 52.915 87.906 53.713ZM99.267 53.713C99.267 54.959 99.078 56.058 98.7 57.01C98.336 57.962 97.832 58.76 97.188 59.404C96.558 60.034 95.816 60.51 94.962 60.832C94.108 61.154 93.198 61.315 92.232 61.315C91.266 61.315 90.349 61.154 89.481 60.832C88.627 60.51 87.878 60.034 87.234 59.404C86.604 58.76 86.1 57.962 85.722 57.01C85.344 56.058 85.155 54.959 85.155 53.713C85.155 52.467 85.344 51.375 85.722 50.437C86.1 49.485 86.611 48.687 87.255 48.043C87.913 47.399 88.669 46.916 89.523 46.594C90.377 46.272 91.28 46.111 92.232 46.111C93.184 46.111 94.087 46.272 94.941 46.594C95.795 46.916 96.537 47.399 97.167 48.043C97.811 48.687 98.322 49.485 98.7 50.437C99.078 51.375 99.267 52.467 99.267 53.713ZM102.17 46.447H104.816V61H102.17V46.447ZM118.109 61C117.633 60.202 117.101 59.348 116.513 58.438C115.925 57.514 115.316 56.59 114.686 55.666C114.056 54.728 113.412 53.825 112.754 52.957C112.11 52.075 111.494 51.284 110.906 50.584V61H108.302V46.447H110.465C111.025 47.035 111.627 47.735 112.271 48.547C112.915 49.345 113.559 50.178 114.203 51.046C114.861 51.914 115.491 52.789 116.093 53.671C116.709 54.539 117.255 55.351 117.731 56.107V46.447H120.356V61H118.109ZM133.99 46.447V48.736H129.517V61H126.85V48.736H122.377V46.447H133.99Z" fill="#818787"/>
<g clip-path="url(#clip0_238_652)">
<path d="M75.8132 31.0822H60.1883C59.8438 31.0822 59.564 30.7784 59.564 30.4043V13.4368C59.564 13.0627 59.8438 12.7588 60.1883 12.7588H75.8132C76.1577 12.7588 76.4376 13.0627 76.4376 13.4368V30.4043C76.4376 30.7784 76.1577 31.0822 75.8132 31.0822Z" fill="#E0E0E0"/>
<path d="M64.5758 14.8828H59.8311C59.7602 14.8828 59.6923 14.8522 59.6422 14.7978C59.5921 14.7434 59.5639 14.6696 59.5639 14.5926V13.2596C59.5639 13.0993 59.6834 12.9695 59.8311 12.9695H64.5758C64.7234 12.9695 64.843 13.0993 64.843 13.2596V14.5911C64.843 14.7514 64.7234 14.8828 64.5758 14.8828ZM70.3723 14.8828H65.6291C65.5582 14.8828 65.4902 14.8522 65.4401 14.7978C65.39 14.7434 65.3619 14.6696 65.3619 14.5926V13.2596C65.3619 13.0993 65.4814 12.9695 65.6291 12.9695H70.3738C70.5214 12.9695 70.6409 13.0993 70.6409 13.2596V14.5911C70.6405 14.6683 70.612 14.7422 70.5617 14.7968C70.5115 14.8513 70.4434 14.8822 70.3723 14.8828ZM76.1703 14.8828H71.4256C71.3548 14.8828 71.2868 14.8522 71.2367 14.7978C71.1866 14.7434 71.1584 14.6696 71.1584 14.5926V13.2596C71.1584 13.0993 71.278 12.9695 71.4256 12.9695H76.1703C76.318 12.9695 76.4375 13.0993 76.4375 13.2596V14.5911C76.4375 14.7514 76.318 14.8828 76.1703 14.8828ZM64.5758 20.2821H59.8311C59.7602 20.2821 59.6923 20.2515 59.6422 20.1971C59.5921 20.1427 59.5639 20.0689 59.5639 19.9919V18.6604C59.5639 18.5001 59.6834 18.3703 59.8311 18.3703H64.5758C64.7234 18.3703 64.843 18.5001 64.843 18.6604V19.9919C64.843 20.0689 64.8148 20.1427 64.7647 20.1971C64.7146 20.2515 64.6466 20.2821 64.5758 20.2821ZM70.3723 20.2821H65.6291C65.5582 20.2821 65.4902 20.2515 65.4401 20.1971C65.39 20.1427 65.3619 20.0689 65.3619 19.9919V18.6604C65.3619 18.5001 65.4814 18.3703 65.6291 18.3703H70.3738C70.5214 18.3703 70.6409 18.5001 70.6409 18.6604V19.9919C70.6395 20.1523 70.52 20.2821 70.3723 20.2821ZM76.1703 20.2821H71.4256C71.3548 20.2821 71.2868 20.2515 71.2367 20.1971C71.1866 20.1427 71.1584 20.0689 71.1584 19.9919V18.6604C71.1584 18.5001 71.278 18.3703 71.4256 18.3703H76.1703C76.318 18.3703 76.4375 18.5001 76.4375 18.6604V19.9919C76.4375 20.0689 76.4094 20.1427 76.3592 20.1971C76.3091 20.2515 76.2412 20.2821 76.1703 20.2821ZM64.5758 25.6829H59.8311C59.7602 25.6829 59.6923 25.6523 59.6422 25.5979C59.5921 25.5435 59.5639 25.4697 59.5639 25.3928V24.0613C59.5639 23.9009 59.6834 23.7712 59.8311 23.7712H64.5758C64.7234 23.7712 64.843 23.9009 64.843 24.0613V25.3928C64.843 25.5516 64.7234 25.6829 64.5758 25.6829ZM70.3723 25.6829H65.6291C65.5582 25.6829 65.4902 25.6523 65.4401 25.5979C65.39 25.5435 65.3619 25.4697 65.3619 25.3928V24.0613C65.3619 23.9009 65.4814 23.7712 65.6291 23.7712H70.3738C70.5214 23.7712 70.6409 23.9009 70.6409 24.0613V25.3928C70.6402 25.4697 70.6116 25.5433 70.5614 25.5976C70.5111 25.6519 70.4432 25.6825 70.3723 25.6829ZM76.1703 25.6829H71.4256C71.3548 25.6829 71.2868 25.6523 71.2367 25.5979C71.1866 25.5435 71.1584 25.4697 71.1584 25.3928V24.0613C71.1584 23.9009 71.278 23.7712 71.4256 23.7712H76.1703C76.318 23.7712 76.4375 23.9009 76.4375 24.0613V25.3928C76.4375 25.5516 76.318 25.6829 76.1703 25.6829ZM64.5758 31.0822H59.8311C59.7602 31.0822 59.6923 31.0516 59.6422 30.9972C59.5921 30.9428 59.5639 30.869 59.5639 30.7921V29.4606C59.5639 29.3002 59.6834 29.1705 59.8311 29.1705H64.5758C64.7234 29.1705 64.843 29.3002 64.843 29.4606V30.7921C64.843 30.869 64.8148 30.9428 64.7647 30.9972C64.7146 31.0516 64.6466 31.0822 64.5758 31.0822ZM70.3723 31.0822H65.6291C65.5582 31.0822 65.4902 31.0516 65.4401 30.9972C65.39 30.9428 65.3619 30.869 65.3619 30.7921V29.4606C65.3619 29.3002 65.4814 29.1705 65.6291 29.1705H70.3738C70.5214 29.1705 70.6409 29.3002 70.6409 29.4606V30.7921C70.6395 30.9524 70.52 31.0822 70.3723 31.0822ZM76.1703 31.0822H71.4256C71.3548 31.0822 71.2868 31.0516 71.2367 30.9972C71.1866 30.9428 71.1584 30.869 71.1584 30.7921V29.4606C71.1584 29.3002 71.278 29.1705 71.4256 29.1705H76.1703C76.318 29.1705 76.4375 29.3002 76.4375 29.4606V30.7921C76.4375 30.869 76.4094 30.9428 76.3592 30.9972C76.3091 31.0516 76.2412 31.0822 76.1703 31.0822ZM61.745 15.6691H59.5625V17.5824H61.745C61.8159 17.5824 61.8838 17.5518 61.9339 17.4974C61.984 17.443 62.0122 17.3692 62.0122 17.2923V15.9608C62.0122 15.7989 61.8927 15.6691 61.745 15.6691ZM67.4966 17.5824H62.7533C62.6824 17.5824 62.6145 17.5518 62.5644 17.4974C62.5142 17.443 62.4861 17.3692 62.4861 17.2923V15.9608C62.4861 15.8005 62.6056 15.6707 62.7533 15.6707H67.498C67.6456 15.6707 67.7652 15.8005 67.7652 15.9608V17.2923C67.7638 17.4526 67.6442 17.5824 67.4966 17.5824ZM73.2481 17.5824H68.5048C68.4698 17.5824 68.435 17.5749 68.4026 17.5603C68.3702 17.5457 68.3407 17.5244 68.3159 17.4974C68.2911 17.4705 68.2714 17.4385 68.258 17.4033C68.2446 17.3681 68.2377 17.3304 68.2377 17.2923V15.9608C68.2377 15.8005 68.3572 15.6707 68.5048 15.6707H73.2495C73.3972 15.6707 73.5167 15.8005 73.5167 15.9608V17.2923C73.5153 17.4526 73.3958 17.5824 73.2481 17.5824ZM74.2564 15.6691C74.1855 15.6691 74.1176 15.6997 74.0675 15.7541C74.0174 15.8085 73.9892 15.8823 73.9892 15.9593V17.2908C73.9892 17.4511 74.1088 17.5809 74.2564 17.5809H76.4375V15.6691H74.2564ZM61.745 21.07H59.5625V22.9832H61.745C61.8159 22.9832 61.8838 22.9527 61.9339 22.8983C61.984 22.8439 62.0122 22.7701 62.0122 22.6931V21.3616C62.0122 21.1998 61.8927 21.07 61.745 21.07ZM67.4966 22.9817H62.7533C62.6824 22.9817 62.6145 22.9511 62.5644 22.8967C62.5142 22.8423 62.4861 22.7685 62.4861 22.6916V21.3601C62.4861 21.1998 62.6056 21.07 62.7533 21.07H67.498C67.6456 21.07 67.7652 21.1998 67.7652 21.3601V22.6916C67.7638 22.8519 67.6442 22.9817 67.4966 22.9817ZM73.2481 22.9817H68.5048C68.4698 22.9817 68.435 22.9742 68.4026 22.9596C68.3702 22.9451 68.3407 22.9237 68.3159 22.8967C68.2911 22.8698 68.2714 22.8378 68.258 22.8026C68.2446 22.7674 68.2377 22.7297 68.2377 22.6916V21.3601C68.2377 21.1998 68.3572 21.07 68.5048 21.07H73.2495C73.3972 21.07 73.5167 21.1998 73.5167 21.3601V22.6916C73.5153 22.8519 73.3958 22.9817 73.2481 22.9817ZM74.2564 21.07C74.1855 21.07 74.1176 21.1005 74.0675 21.1549C74.0174 21.2094 73.9892 21.2831 73.9892 21.3601V22.6916C73.9892 22.8519 74.1088 22.9817 74.2564 22.9817H76.4375V21.07H74.2564ZM61.745 26.4693H59.5625V28.3826H61.745C61.7801 28.3826 61.8148 28.375 61.8472 28.3605C61.8797 28.3459 61.9091 28.3245 61.9339 28.2976C61.9587 28.2706 61.9784 28.2387 61.9918 28.2035C62.0053 28.1683 62.0122 28.1305 62.0122 28.0924V26.7609C62.0122 26.5991 61.8927 26.4693 61.745 26.4693ZM67.4966 28.3826H62.7533C62.7182 28.3826 62.6835 28.375 62.651 28.3605C62.6186 28.3459 62.5892 28.3245 62.5644 28.2976C62.5395 28.2706 62.5199 28.2387 62.5064 28.2035C62.493 28.1683 62.4861 28.1305 62.4861 28.0924V26.7609C62.4861 26.6006 62.6056 26.4708 62.7533 26.4708H67.498C67.6456 26.4708 67.7652 26.6006 67.7652 26.7609V28.0924C67.7638 28.2528 67.6442 28.3826 67.4966 28.3826ZM73.2481 28.3826H68.5048C68.4698 28.3826 68.435 28.375 68.4026 28.3605C68.3702 28.3459 68.3407 28.3245 68.3159 28.2976C68.2911 28.2706 68.2714 28.2387 68.258 28.2035C68.2446 28.1683 68.2377 28.1305 68.2377 28.0924V26.7609C68.2377 26.6006 68.3572 26.4708 68.5048 26.4708H73.2495C73.3972 26.4708 73.5167 26.6006 73.5167 26.7609V28.0924C73.5153 28.2528 73.3958 28.3826 73.2481 28.3826ZM74.2564 26.4693C74.1855 26.4693 74.1176 26.4998 74.0675 26.5543C74.0174 26.6087 73.9892 26.6825 73.9892 26.7594V28.0909C73.9892 28.2512 74.1088 28.381 74.2564 28.381H76.4375V26.4693H74.2564Z" fill="#751C00"/>
<path d="M64.5758 14.6721H59.8312C59.7603 14.6721 59.6923 14.6415 59.6422 14.5871C59.5921 14.5327 59.564 14.4589 59.564 14.3819V13.0489C59.564 12.8886 59.6835 12.7588 59.8312 12.7588H64.5758C64.7235 12.7588 64.843 12.8886 64.843 13.0489V14.3804C64.843 14.5407 64.7235 14.6721 64.5758 14.6721Z" fill="#E04E2C"/>
<path d="M70.3723 14.6721H65.629C65.5581 14.6721 65.4902 14.6415 65.4401 14.5871C65.39 14.5327 65.3618 14.4589 65.3618 14.3819V13.0489C65.3618 12.8886 65.4813 12.7588 65.629 12.7588H70.3737C70.5213 12.7588 70.6409 12.8886 70.6409 13.0489V14.3804C70.6404 14.4576 70.6119 14.5315 70.5617 14.5861C70.5114 14.6406 70.4434 14.6715 70.3723 14.6721Z" fill="#BF360C"/>
<path d="M76.1704 14.6721H71.4257C71.3548 14.6721 71.2869 14.6415 71.2368 14.5871C71.1866 14.5327 71.1585 14.4589 71.1585 14.3819V13.0489C71.1585 12.8886 71.278 12.7588 71.4257 12.7588H76.1704C76.318 12.7588 76.4376 12.8886 76.4376 13.0489V14.3804C76.4376 14.5407 76.318 14.6721 76.1704 14.6721ZM64.5758 20.0714H59.8312C59.7603 20.0714 59.6923 20.0408 59.6422 19.9864C59.5921 19.932 59.564 19.8582 59.564 19.7812V18.4497C59.564 18.2894 59.6835 18.1596 59.8312 18.1596H64.5758C64.7235 18.1596 64.843 18.2894 64.843 18.4497V19.7812C64.843 19.8582 64.8149 19.932 64.7648 19.9864C64.7147 20.0408 64.6467 20.0714 64.5758 20.0714ZM70.3724 20.0714H65.6291C65.5583 20.0714 65.4903 20.0408 65.4402 19.9864C65.3901 19.932 65.3619 19.8582 65.3619 19.7812V18.4497C65.3619 18.2894 65.4815 18.1596 65.6291 18.1596H70.3738C70.5215 18.1596 70.641 18.2894 70.641 18.4497V19.7812C70.6396 19.9416 70.5201 20.0714 70.3724 20.0714Z" fill="#E04E2C"/>
<path d="M76.1701 20.0714H71.4254C71.3545 20.0714 71.2866 20.0408 71.2365 19.9864C71.1864 19.932 71.1582 19.8582 71.1582 19.7813V18.4498C71.1582 18.2895 71.2777 18.1597 71.4254 18.1597H76.1701C76.3177 18.1597 76.4373 18.2895 76.4373 18.4498V19.7813C76.4373 19.8582 76.4091 19.932 76.359 19.9864C76.3089 20.0408 76.2409 20.0714 76.1701 20.0714Z" fill="#BF360C"/>
<path d="M64.5758 25.4723H59.8312C59.7603 25.4723 59.6923 25.4417 59.6422 25.3873C59.5921 25.3329 59.564 25.2591 59.564 25.1822V23.8507C59.564 23.6903 59.6835 23.5605 59.8312 23.5605H64.5758C64.7235 23.5605 64.843 23.6903 64.843 23.8507V25.1822C64.843 25.341 64.7235 25.4723 64.5758 25.4723Z" fill="#E04E2C"/>
<path d="M70.3723 25.4723H65.629C65.5581 25.4723 65.4902 25.4417 65.4401 25.3873C65.39 25.3329 65.3618 25.2591 65.3618 25.1822V23.8507C65.3618 23.6903 65.4813 23.5605 65.629 23.5605H70.3737C70.5213 23.5605 70.6409 23.6903 70.6409 23.8507V25.1822C70.6401 25.2591 70.6116 25.3327 70.5613 25.387C70.5111 25.4413 70.4432 25.4719 70.3723 25.4723Z" fill="#BF360C"/>
<path d="M76.1704 25.4723H71.4257C71.3548 25.4723 71.2869 25.4417 71.2368 25.3873C71.1866 25.3329 71.1585 25.2591 71.1585 25.1822V23.8507C71.1585 23.6903 71.278 23.5605 71.4257 23.5605H76.1704C76.318 23.5605 76.4376 23.6903 76.4376 23.8507V25.1822C76.4376 25.341 76.318 25.4723 76.1704 25.4723ZM64.5758 30.8716H59.8312C59.7961 30.8716 59.7613 30.8641 59.7289 30.8495C59.6965 30.8349 59.667 30.8136 59.6422 30.7866C59.6174 30.7597 59.5977 30.7277 59.5843 30.6925C59.5709 30.6573 59.564 30.6196 59.564 30.5815V29.25C59.564 29.0896 59.6835 28.9599 59.8312 28.9599H64.5758C64.7235 28.9599 64.843 29.0896 64.843 29.25V30.5815C64.843 30.6196 64.8361 30.6573 64.8227 30.6925C64.8093 30.7277 64.7896 30.7597 64.7648 30.7866C64.74 30.8136 64.7105 30.8349 64.6781 30.8495C64.6457 30.8641 64.6109 30.8716 64.5758 30.8716ZM70.3724 30.8716H65.6291C65.594 30.8716 65.5593 30.8641 65.5269 30.8495C65.4945 30.8349 65.465 30.8136 65.4402 30.7866C65.4154 30.7597 65.3957 30.7277 65.3823 30.6925C65.3688 30.6573 65.3619 30.6196 65.3619 30.5815V29.25C65.3619 29.0896 65.4815 28.9599 65.6291 28.9599H70.3738C70.5215 28.9599 70.641 29.0896 70.641 29.25V30.5815C70.6396 30.7418 70.5201 30.8716 70.3724 30.8716Z" fill="#E04E2C"/>
<path d="M76.1703 30.8716H71.4256C71.3905 30.8716 71.3558 30.8641 71.3234 30.8495C71.291 30.8349 71.2615 30.8135 71.2367 30.7866C71.2119 30.7596 71.1922 30.7277 71.1788 30.6925C71.1653 30.6573 71.1584 30.6195 71.1584 30.5814V29.2499C71.1584 29.0896 71.278 28.9598 71.4256 28.9598H76.1703C76.318 28.9598 76.4375 29.0896 76.4375 29.2499V30.5814C76.4375 30.6195 76.4306 30.6573 76.4172 30.6925C76.4037 30.7277 76.3841 30.7596 76.3592 30.7866C76.3344 30.8135 76.305 30.8349 76.2726 30.8495C76.2401 30.8641 76.2054 30.8716 76.1703 30.8716ZM61.745 15.4585H59.5625V17.3718H61.745C61.8159 17.3718 61.8838 17.3412 61.9339 17.2868C61.984 17.2324 62.0122 17.1586 62.0122 17.0816V15.7501C62.0122 15.5883 61.8927 15.4585 61.745 15.4585Z" fill="#BF360C"/>
<path d="M67.4968 17.3717H62.7535C62.6827 17.3717 62.6147 17.3411 62.5646 17.2867C62.5145 17.2323 62.4863 17.1585 62.4863 17.0816V15.7501C62.4863 15.5898 62.6059 15.46 62.7535 15.46H67.4982C67.6459 15.46 67.7654 15.5898 67.7654 15.7501V17.0816C67.764 17.2419 67.6445 17.3717 67.4968 17.3717Z" fill="#E04E2C"/>
<path d="M73.2483 17.3717H68.505C68.4699 17.3717 68.4351 17.3642 68.4027 17.3496C68.3703 17.335 68.3409 17.3137 68.3161 17.2867C68.2912 17.2598 68.2716 17.2278 68.2581 17.1926C68.2447 17.1574 68.2378 17.1197 68.2378 17.0816V15.7501C68.2378 15.5898 68.3573 15.46 68.505 15.46H73.2497C73.3973 15.46 73.5169 15.5898 73.5169 15.7501V17.0816C73.5154 17.2419 73.3959 17.3717 73.2483 17.3717Z" fill="#FF7043"/>
<path d="M74.2564 15.4585C74.1855 15.4585 74.1176 15.4891 74.0675 15.5435C74.0174 15.5979 73.9892 15.6717 73.9892 15.7486V17.0801C73.9892 17.2405 74.1088 17.3702 74.2564 17.3702H76.4375V15.4585H74.2564ZM61.745 20.8593H59.5625V22.7726H61.745C61.7801 22.7726 61.8148 22.7651 61.8472 22.7505C61.8797 22.7359 61.9091 22.7146 61.9339 22.6876C61.9587 22.6607 61.9784 22.6287 61.9918 22.5935C62.0053 22.5583 62.0122 22.5206 62.0122 22.4825V21.151C62.0122 20.9891 61.8927 20.8593 61.745 20.8593Z" fill="#E04E2C"/>
<path d="M67.4968 22.7711H62.7535C62.6827 22.7711 62.6147 22.7406 62.5646 22.6861C62.5145 22.6317 62.4863 22.5579 62.4863 22.481V21.1495C62.4863 20.9892 62.6059 20.8594 62.7535 20.8594H67.4982C67.6459 20.8594 67.7654 20.9892 67.7654 21.1495V22.481C67.764 22.6413 67.6445 22.7711 67.4968 22.7711Z" fill="#FF7043"/>
<path d="M73.2483 22.7711H68.505C68.4699 22.7711 68.4351 22.7636 68.4027 22.749C68.3703 22.7345 68.3409 22.7131 68.3161 22.6861C68.2912 22.6592 68.2716 22.6272 68.2581 22.592C68.2447 22.5568 68.2378 22.5191 68.2378 22.481V21.1495C68.2378 20.9892 68.3573 20.8594 68.505 20.8594H73.2497C73.3973 20.8594 73.5169 20.9892 73.5169 21.1495V22.481C73.5155 22.6413 73.3959 22.7711 73.2483 22.7711ZM74.2565 20.8594C74.1857 20.8594 74.1177 20.8899 74.0676 20.9443C74.0175 20.9988 73.9894 21.0726 73.9894 21.1495V22.481C73.9894 22.6413 74.1089 22.7711 74.2565 22.7711H76.4376V20.8594H74.2565Z" fill="#E04E2C"/>
<path d="M61.745 26.2583H59.5625V28.1716H61.745C61.7801 28.1716 61.8148 28.1641 61.8472 28.1495C61.8797 28.1349 61.9091 28.1135 61.9339 28.0866C61.9587 28.0597 61.9784 28.0277 61.9918 27.9925C62.0053 27.9573 62.0122 27.9196 62.0122 27.8815V26.5499C62.0122 26.3881 61.8927 26.2583 61.745 26.2583Z" fill="#BF360C"/>
<path d="M67.4968 28.172H62.7535C62.7184 28.172 62.6837 28.1645 62.6513 28.1499C62.6189 28.1353 62.5894 28.114 62.5646 28.087C62.5398 28.0601 62.5201 28.0281 62.5067 27.9929C62.4932 27.9577 62.4863 27.92 62.4863 27.8819V26.5504C62.4863 26.39 62.6059 26.2603 62.7535 26.2603H67.4982C67.6459 26.2603 67.7654 26.39 67.7654 26.5504V27.8819C67.764 28.0422 67.6445 28.172 67.4968 28.172ZM73.2484 28.172H68.5051C68.47 28.172 68.4352 28.1645 68.4028 28.1499C68.3704 28.1353 68.341 28.114 68.3161 28.087C68.2913 28.0601 68.2717 28.0281 68.2582 27.9929C68.2448 27.9577 68.2379 27.92 68.2379 27.8819V26.5504C68.2379 26.39 68.3574 26.2603 68.5051 26.2603H73.2498C73.3974 26.2603 73.517 26.39 73.517 26.5504V27.8819C73.5155 28.0422 73.396 28.172 73.2484 28.172Z" fill="#E04E2C"/>
<path d="M74.2564 26.2583C74.1856 26.2583 74.1176 26.2889 74.0675 26.3433C74.0174 26.3977 73.9893 26.4715 73.9893 26.5484V27.8799C73.9893 28.0403 74.1088 28.17 74.2564 28.17H76.4375V26.2583H74.2564Z" fill="#FF7043"/>
</g>
<path d="M67.875 40.9999C67.875 40.9999 81.75 28.7621 81.75 19.4771C81.75 16.0522 80.2882 12.7676 77.6861 10.3458C75.084 7.92402 71.5549 6.56348 67.875 6.56348C64.1951 6.56348 60.666 7.92402 58.0639 10.3458C55.4618 12.7676 54 16.0522 54 19.4771C54 28.7621 67.875 40.9999 67.875 40.9999ZM67.875 30.762C67.1165 30.762 66.4097 30.683 65.6308 30.2639C61.965 28.2917 60.9375 23.6398 60.9375 19.4771C60.9375 17.7647 61.6684 16.1224 62.9694 14.9115C64.2705 13.7006 66.0351 13.0203 67.875 13.0203C69.7149 13.0203 71.4795 13.7006 72.7806 14.9115C74.0816 16.1224 74.8125 17.7647 74.8125 19.4771C74.8125 22.3856 74.3238 24.1702 73.7192 25.6431C72 29.8313 69.7149 30.762 67.875 30.762Z" fill="#818787"/>
<path d="M3.641 71.208C3.597 71.098 3.531 70.9477 3.443 70.757C3.355 70.559 3.256 70.3427 3.146 70.108C3.04333 69.866 2.92967 69.613 2.805 69.349C2.68033 69.0777 2.55567 68.8173 2.431 68.568C2.31367 68.3187 2.2 68.084 2.09 67.864C1.98 67.644 1.88467 67.4643 1.804 67.325C1.70867 68.1683 1.639 68.9713 1.595 69.734C1.551 70.4893 1.51433 71.2447 1.485 72H0.814C0.843333 71.054 0.891 70.1007 0.957 69.14C1.03033 68.1793 1.122 67.237 1.232 66.313H1.969C2.06433 66.467 2.18533 66.687 2.332 66.973C2.486 67.259 2.651 67.5853 2.827 67.952C3.01033 68.3113 3.19733 68.7037 3.388 69.129C3.586 69.547 3.784 69.9723 3.982 70.405C4.18 69.9723 4.37433 69.547 4.565 69.129C4.763 68.7037 4.95 68.3113 5.126 67.952C5.30933 67.5853 5.47433 67.259 5.621 66.973C5.76767 66.687 5.89233 66.467 5.995 66.313H6.721C6.831 67.237 6.919 68.1793 6.985 69.14C7.05833 70.1007 7.10967 71.054 7.139 72H6.457C6.42767 71.2447 6.391 70.4893 6.347 69.734C6.303 68.9713 6.23333 68.1683 6.138 67.325C6.05733 67.4717 5.962 67.655 5.852 67.875C5.742 68.0877 5.62467 68.3187 5.5 68.568C5.38267 68.8173 5.26167 69.0777 5.137 69.349C5.01233 69.613 4.895 69.866 4.785 70.108C4.68233 70.3427 4.587 70.559 4.499 70.757C4.411 70.9477 4.345 71.098 4.301 71.208H3.641ZM10.6882 71.483C10.9669 71.483 11.2089 71.4757 11.4142 71.461C11.6269 71.439 11.8066 71.4133 11.9532 71.384V69.382C11.8726 69.3453 11.7442 69.3087 11.5682 69.272C11.3922 69.228 11.1502 69.206 10.8422 69.206C10.6662 69.206 10.4829 69.2207 10.2922 69.25C10.1016 69.272 9.92555 69.327 9.76422 69.415C9.60289 69.4957 9.47089 69.6093 9.36822 69.756C9.26555 69.9027 9.21422 70.097 9.21422 70.339C9.21422 70.5517 9.24722 70.7313 9.31322 70.878C9.38655 71.0247 9.48555 71.142 9.61022 71.23C9.74222 71.318 9.89622 71.384 10.0722 71.428C10.2556 71.4647 10.4609 71.483 10.6882 71.483ZM10.6222 66.181C10.9962 66.181 11.3116 66.236 11.5682 66.346C11.8322 66.4487 12.0449 66.5953 12.2062 66.786C12.3676 66.9693 12.4849 67.1893 12.5582 67.446C12.6316 67.7027 12.6682 67.9813 12.6682 68.282V71.868C12.5949 71.89 12.4886 71.9157 12.3492 71.945C12.2099 71.967 12.0486 71.9927 11.8652 72.022C11.6819 72.0513 11.4766 72.0733 11.2492 72.088C11.0292 72.11 10.8019 72.121 10.5672 72.121C10.2666 72.121 9.98789 72.088 9.73122 72.022C9.48189 71.956 9.26189 71.8533 9.07122 71.714C8.88789 71.5673 8.74122 71.384 8.63122 71.164C8.52855 70.9367 8.47722 70.6617 8.47722 70.339C8.47722 70.031 8.53589 69.767 8.65322 69.547C8.77055 69.327 8.93555 69.1473 9.14822 69.008C9.36089 68.8613 9.61389 68.755 9.90722 68.689C10.2006 68.623 10.5196 68.59 10.8642 68.59C10.9669 68.59 11.0732 68.5973 11.1832 68.612C11.3006 68.6193 11.4106 68.634 11.5132 68.656C11.6232 68.6707 11.7149 68.689 11.7882 68.711C11.8689 68.7257 11.9239 68.7403 11.9532 68.755V68.403C11.9532 68.205 11.9386 68.0143 11.9092 67.831C11.8799 67.6403 11.8139 67.4717 11.7112 67.325C11.6159 67.171 11.4766 67.05 11.2932 66.962C11.1172 66.8667 10.8826 66.819 10.5892 66.819C10.1712 66.819 9.85955 66.8483 9.65422 66.907C9.44889 66.9657 9.29855 67.0133 9.20322 67.05L9.10422 66.423C9.22889 66.3643 9.41955 66.3093 9.67622 66.258C9.94022 66.2067 10.2556 66.181 10.6222 66.181ZM17.7479 66.918H15.2069V72H14.4919V66.313H17.7479V66.918ZM20.657 71.483C20.9356 71.483 21.1776 71.4757 21.383 71.461C21.5956 71.439 21.7753 71.4133 21.922 71.384V69.382C21.8413 69.3453 21.713 69.3087 21.537 69.272C21.361 69.228 21.119 69.206 20.811 69.206C20.635 69.206 20.4516 69.2207 20.261 69.25C20.0703 69.272 19.8943 69.327 19.733 69.415C19.5716 69.4957 19.4396 69.6093 19.337 69.756C19.2343 69.9027 19.183 70.097 19.183 70.339C19.183 70.5517 19.216 70.7313 19.282 70.878C19.3553 71.0247 19.4543 71.142 19.579 71.23C19.711 71.318 19.865 71.384 20.041 71.428C20.2243 71.4647 20.4296 71.483 20.657 71.483ZM20.591 66.181C20.965 66.181 21.2803 66.236 21.537 66.346C21.801 66.4487 22.0136 66.5953 22.175 66.786C22.3363 66.9693 22.4536 67.1893 22.527 67.446C22.6003 67.7027 22.637 67.9813 22.637 68.282V71.868C22.5636 71.89 22.4573 71.9157 22.318 71.945C22.1786 71.967 22.0173 71.9927 21.834 72.022C21.6506 72.0513 21.4453 72.0733 21.218 72.088C20.998 72.11 20.7706 72.121 20.536 72.121C20.2353 72.121 19.9566 72.088 19.7 72.022C19.4506 71.956 19.2306 71.8533 19.04 71.714C18.8566 71.5673 18.71 71.384 18.6 71.164C18.4973 70.9367 18.446 70.6617 18.446 70.339C18.446 70.031 18.5046 69.767 18.622 69.547C18.7393 69.327 18.9043 69.1473 19.117 69.008C19.3296 68.8613 19.5826 68.755 19.876 68.689C20.1693 68.623 20.4883 68.59 20.833 68.59C20.9356 68.59 21.042 68.5973 21.152 68.612C21.2693 68.6193 21.3793 68.634 21.482 68.656C21.592 68.6707 21.6836 68.689 21.757 68.711C21.8376 68.7257 21.8926 68.7403 21.922 68.755V68.403C21.922 68.205 21.9073 68.0143 21.878 67.831C21.8486 67.6403 21.7826 67.4717 21.68 67.325C21.5846 67.171 21.4453 67.05 21.262 66.962C21.086 66.8667 20.8513 66.819 20.558 66.819C20.14 66.819 19.8283 66.8483 19.623 66.907C19.4176 66.9657 19.2673 67.0133 19.172 67.05L19.073 66.423C19.1976 66.3643 19.3883 66.3093 19.645 66.258C19.909 66.2067 20.2243 66.181 20.591 66.181ZM25.7806 71.483C26.294 71.483 26.6973 71.3987 26.9906 71.23C27.284 71.054 27.4306 70.7937 27.4306 70.449C27.4306 70.1997 27.3756 70.0017 27.2656 69.855C27.1556 69.7083 27.0163 69.5947 26.8476 69.514C26.6863 69.4333 26.5103 69.382 26.3196 69.36C26.1363 69.3307 25.9676 69.316 25.8136 69.316H25.0216V68.711H25.7586C25.8906 68.711 26.041 68.7 26.2096 68.678C26.3856 68.656 26.547 68.612 26.6936 68.546C26.8403 68.48 26.965 68.3883 27.0676 68.271C27.1703 68.1463 27.2216 67.985 27.2216 67.787C27.2216 67.5963 27.1776 67.4387 27.0896 67.314C27.009 67.1893 26.899 67.0903 26.7596 67.017C26.6203 66.9437 26.459 66.8923 26.2756 66.863C26.0996 66.8337 25.92 66.819 25.7366 66.819C25.3186 66.819 24.9886 66.863 24.7466 66.951C24.5046 67.0317 24.3396 67.094 24.2516 67.138L24.0866 66.5C24.1893 66.4487 24.3836 66.3863 24.6696 66.313C24.9556 66.2323 25.3113 66.192 25.7366 66.192C26.4626 66.192 27.0126 66.324 27.3866 66.588C27.7606 66.852 27.9476 67.2443 27.9476 67.765C27.9476 68.0877 27.8523 68.3517 27.6616 68.557C27.471 68.755 27.2473 68.8943 26.9906 68.975C27.35 69.0777 27.636 69.25 27.8486 69.492C28.0613 69.734 28.1676 70.053 28.1676 70.449C28.1676 71.0137 27.966 71.4353 27.5626 71.714C27.1593 71.9927 26.569 72.132 25.7916 72.132C25.271 72.132 24.853 72.088 24.5376 72C24.2223 71.912 24.0206 71.846 23.9326 71.802L24.1196 71.153C24.1416 71.1677 24.1893 71.1933 24.2626 71.23C24.3433 71.2593 24.4533 71.296 24.5926 71.34C24.732 71.3767 24.9006 71.4097 25.0986 71.439C25.2966 71.4683 25.524 71.483 25.7806 71.483ZM33.5748 67.226C33.3548 67.49 33.0982 67.8237 32.8048 68.227C32.5188 68.6303 32.2255 69.0557 31.9248 69.503C31.6315 69.9503 31.3492 70.394 31.0778 70.834C30.8065 71.274 30.5718 71.6627 30.3738 72H29.7028V66.313H30.4068V70.867C30.5828 70.5517 30.7992 70.1887 31.0558 69.778C31.3198 69.36 31.5985 68.942 31.8918 68.524C32.1852 68.0987 32.4785 67.6917 32.7718 67.303C33.0725 66.9143 33.3512 66.5843 33.6078 66.313H34.2788V72H33.5748V67.226ZM40.6906 72H39.9756V69.349H36.8846V72H36.1696V66.313H36.8846V68.744H39.9756V66.313H40.6906V72ZM47.4396 72.121C46.9996 72.121 46.611 72.0513 46.2736 71.912C45.9363 71.7727 45.654 71.5747 45.4266 71.318C45.2066 71.054 45.038 70.7423 44.9206 70.383C44.8033 70.0163 44.7446 69.613 44.7446 69.173C44.7446 68.7257 44.8033 68.3187 44.9206 67.952C45.0453 67.5853 45.2213 67.27 45.4486 67.006C45.676 66.742 45.951 66.5403 46.2736 66.401C46.5963 66.2543 46.9593 66.181 47.3626 66.181C47.6706 66.181 47.9566 66.2067 48.2206 66.258C48.492 66.3093 48.701 66.3753 48.8476 66.456L48.6606 67.072C48.514 66.9987 48.349 66.94 48.1656 66.896C47.9823 66.852 47.7366 66.83 47.4286 66.83C46.798 66.83 46.3176 67.0353 45.9876 67.446C45.665 67.8493 45.5036 68.425 45.5036 69.173C45.5036 69.5103 45.5403 69.822 45.6136 70.108C45.687 70.3867 45.8043 70.6287 45.9656 70.834C46.1343 71.032 46.347 71.1897 46.6036 71.307C46.8676 71.417 47.1866 71.472 47.5606 71.472C47.8686 71.472 48.1253 71.439 48.3306 71.373C48.5433 71.2997 48.6973 71.2373 48.7926 71.186L48.9466 71.802C48.8146 71.8753 48.6056 71.945 48.3196 72.011C48.041 72.0843 47.7476 72.121 47.4396 72.121ZM53.9694 66.313V66.918H52.0994V72H51.3844V66.918H49.5254V66.313H53.9694ZM55.7909 70.977C55.8569 71.0283 55.9375 71.0833 56.0329 71.142C56.1355 71.2007 56.2529 71.2557 56.3849 71.307C56.5169 71.3583 56.6599 71.4023 56.8139 71.439C56.9679 71.4683 57.1292 71.483 57.2979 71.483C57.6499 71.483 57.9432 71.4243 58.1779 71.307C58.4199 71.1823 58.6142 71.0173 58.7609 70.812C58.9075 70.5993 59.0139 70.3537 59.0799 70.075C59.1459 69.789 59.1789 69.4883 59.1789 69.173C59.1789 68.425 58.9919 67.853 58.6179 67.457C58.2439 67.0537 57.7489 66.852 57.1329 66.852C56.7809 66.852 56.4949 66.8703 56.2749 66.907C56.0622 66.9363 55.9009 66.9693 55.7909 67.006V70.977ZM55.7909 74.035H55.0759V66.511C55.2885 66.4377 55.5599 66.368 55.8899 66.302C56.2199 66.236 56.6379 66.203 57.1439 66.203C57.5619 66.203 57.9395 66.2727 58.2769 66.412C58.6215 66.544 58.9149 66.7383 59.1569 66.995C59.4062 67.2517 59.5969 67.5633 59.7289 67.93C59.8682 68.2967 59.9379 68.711 59.9379 69.173C59.9379 69.6057 59.8792 70.0053 59.7619 70.372C59.6519 70.7313 59.4869 71.043 59.2669 71.307C59.0469 71.5637 58.7755 71.7653 58.4529 71.912C58.1375 72.0587 57.7745 72.132 57.3639 72.132C56.9899 72.132 56.6635 72.0807 56.3849 71.978C56.1135 71.868 55.9155 71.7653 55.7909 71.67V74.035ZM66.34 69.162C66.34 69.6093 66.274 70.0163 66.142 70.383C66.0173 70.7497 65.8376 71.0613 65.603 71.318C65.3756 71.5747 65.1043 71.7763 64.789 71.923C64.4736 72.0623 64.1253 72.132 63.744 72.132C63.3626 72.132 63.0143 72.0623 62.699 71.923C62.3836 71.7763 62.1086 71.5747 61.874 71.318C61.6466 71.0613 61.467 70.7497 61.335 70.383C61.2103 70.0163 61.148 69.6093 61.148 69.162C61.148 68.7147 61.2103 68.3077 61.335 67.941C61.467 67.5743 61.6466 67.2627 61.874 67.006C62.1086 66.742 62.3836 66.5403 62.699 66.401C63.0143 66.2543 63.3626 66.181 63.744 66.181C64.1253 66.181 64.4736 66.2543 64.789 66.401C65.1043 66.5403 65.3756 66.742 65.603 67.006C65.8376 67.2627 66.0173 67.5743 66.142 67.941C66.274 68.3077 66.34 68.7147 66.34 69.162ZM65.581 69.162C65.581 68.4507 65.416 67.886 65.086 67.468C64.756 67.0427 64.3086 66.83 63.744 66.83C63.1793 66.83 62.732 67.0427 62.402 67.468C62.072 67.886 61.907 68.4507 61.907 69.162C61.907 69.8733 62.072 70.438 62.402 70.856C62.732 71.274 63.1793 71.483 63.744 71.483C64.3086 71.483 64.756 71.274 65.086 70.856C65.416 70.438 65.581 69.8733 65.581 69.162ZM71.7633 67.226C71.5433 67.49 71.2866 67.8237 70.9933 68.227C70.7073 68.6303 70.414 69.0557 70.1133 69.503C69.82 69.9503 69.5376 70.394 69.2663 70.834C68.995 71.274 68.7603 71.6627 68.5623 72H67.8913V66.313H68.5953V70.867C68.7713 70.5517 68.9876 70.1887 69.2443 69.778C69.5083 69.36 69.787 68.942 70.0803 68.524C70.3736 68.0987 70.667 67.6917 70.9603 67.303C71.261 66.9143 71.5396 66.5843 71.7963 66.313H72.4673V72H71.7633V67.226ZM70.1793 65.345C69.7686 65.345 69.4313 65.2313 69.1673 65.004C68.9033 64.7767 68.7346 64.454 68.6613 64.036L69.2443 63.882C69.2883 64.1313 69.3836 64.3367 69.5303 64.498C69.6843 64.652 69.9006 64.729 70.1793 64.729C70.458 64.729 70.6706 64.652 70.8173 64.498C70.9713 64.3367 71.0703 64.1313 71.1143 63.882L71.6973 64.036C71.624 64.454 71.4553 64.7767 71.1913 65.004C70.9273 65.2313 70.59 65.345 70.1793 65.345ZM77.0531 71.208C77.0091 71.098 76.9431 70.9477 76.8551 70.757C76.7671 70.559 76.6681 70.3427 76.5581 70.108C76.4554 69.866 76.3418 69.613 76.2171 69.349C76.0924 69.0777 75.9678 68.8173 75.8431 68.568C75.7258 68.3187 75.6121 68.084 75.5021 67.864C75.3921 67.644 75.2968 67.4643 75.2161 67.325C75.1208 68.1683 75.0511 68.9713 75.0071 69.734C74.9631 70.4893 74.9264 71.2447 74.8971 72H74.2261C74.2554 71.054 74.3031 70.1007 74.3691 69.14C74.4424 68.1793 74.5341 67.237 74.6441 66.313H75.3811C75.4764 66.467 75.5974 66.687 75.7441 66.973C75.8981 67.259 76.0631 67.5853 76.2391 67.952C76.4224 68.3113 76.6094 68.7037 76.8001 69.129C76.9981 69.547 77.1961 69.9723 77.3941 70.405C77.5921 69.9723 77.7864 69.547 77.9771 69.129C78.1751 68.7037 78.3621 68.3113 78.5381 67.952C78.7214 67.5853 78.8864 67.259 79.0331 66.973C79.1798 66.687 79.3044 66.467 79.4071 66.313H80.1331C80.2431 67.237 80.3311 68.1793 80.3971 69.14C80.4704 70.1007 80.5218 71.054 80.5511 72H79.8691C79.8398 71.2447 79.8031 70.4893 79.7591 69.734C79.7151 68.9713 79.6454 68.1683 79.5501 67.325C79.4694 67.4717 79.3741 67.655 79.2641 67.875C79.1541 68.0877 79.0368 68.3187 78.9121 68.568C78.7948 68.8173 78.6738 69.0777 78.5491 69.349C78.4244 69.613 78.3071 69.866 78.1971 70.108C78.0944 70.3427 77.9991 70.559 77.9111 70.757C77.8231 70.9477 77.7571 71.098 77.7131 71.208H77.0531ZM84.1003 71.483C84.379 71.483 84.621 71.4757 84.8263 71.461C85.039 71.439 85.2187 71.4133 85.3653 71.384V69.382C85.2847 69.3453 85.1563 69.3087 84.9803 69.272C84.8043 69.228 84.5623 69.206 84.2543 69.206C84.0783 69.206 83.895 69.2207 83.7043 69.25C83.5137 69.272 83.3377 69.327 83.1763 69.415C83.015 69.4957 82.883 69.6093 82.7803 69.756C82.6777 69.9027 82.6263 70.097 82.6263 70.339C82.6263 70.5517 82.6593 70.7313 82.7253 70.878C82.7987 71.0247 82.8977 71.142 83.0223 71.23C83.1543 71.318 83.3083 71.384 83.4843 71.428C83.6677 71.4647 83.873 71.483 84.1003 71.483ZM84.0343 66.181C84.4083 66.181 84.7237 66.236 84.9803 66.346C85.2443 66.4487 85.457 66.5953 85.6183 66.786C85.7797 66.9693 85.897 67.1893 85.9703 67.446C86.0437 67.7027 86.0803 67.9813 86.0803 68.282V71.868C86.007 71.89 85.9007 71.9157 85.7613 71.945C85.622 71.967 85.4607 71.9927 85.2773 72.022C85.094 72.0513 84.8887 72.0733 84.6613 72.088C84.4413 72.11 84.214 72.121 83.9793 72.121C83.6787 72.121 83.4 72.088 83.1433 72.022C82.894 71.956 82.674 71.8533 82.4833 71.714C82.3 71.5673 82.1533 71.384 82.0433 71.164C81.9407 70.9367 81.8893 70.6617 81.8893 70.339C81.8893 70.031 81.948 69.767 82.0653 69.547C82.1827 69.327 82.3477 69.1473 82.5603 69.008C82.773 68.8613 83.026 68.755 83.3193 68.689C83.6127 68.623 83.9317 68.59 84.2763 68.59C84.379 68.59 84.4853 68.5973 84.5953 68.612C84.7127 68.6193 84.8227 68.634 84.9253 68.656C85.0353 68.6707 85.127 68.689 85.2003 68.711C85.281 68.7257 85.336 68.7403 85.3653 68.755V68.403C85.3653 68.205 85.3507 68.0143 85.3213 67.831C85.292 67.6403 85.226 67.4717 85.1233 67.325C85.028 67.171 84.8887 67.05 84.7053 66.962C84.5293 66.8667 84.2947 66.819 84.0013 66.819C83.5833 66.819 83.2717 66.8483 83.0663 66.907C82.861 66.9657 82.7107 67.0133 82.6153 67.05L82.5163 66.423C82.641 66.3643 82.8317 66.3093 83.0883 66.258C83.3523 66.2067 83.6677 66.181 84.0343 66.181ZM91.567 66.313V66.918H89.697V72H88.982V66.918H87.123V66.313H91.567ZM92.3325 69.151C92.3325 68.6523 92.4022 68.2197 92.5415 67.853C92.6882 67.479 92.8752 67.1673 93.1025 66.918C93.3372 66.6687 93.6012 66.4853 93.8945 66.368C94.1952 66.2433 94.5032 66.181 94.8185 66.181C95.5152 66.181 96.0689 66.4083 96.4795 66.863C96.8975 67.3177 97.1065 68.018 97.1065 68.964C97.1065 69.0227 97.1029 69.0813 97.0955 69.14C97.0955 69.1987 97.0919 69.2537 97.0845 69.305H93.0915C93.1135 70.0017 93.2859 70.537 93.6085 70.911C93.9312 71.285 94.4445 71.472 95.1485 71.472C95.5372 71.472 95.8452 71.4353 96.0725 71.362C96.2999 71.2887 96.4649 71.2263 96.5675 71.175L96.6995 71.791C96.5969 71.8497 96.4025 71.9193 96.1165 72C95.8379 72.0807 95.5079 72.121 95.1265 72.121C94.6279 72.121 94.2025 72.0477 93.8505 71.901C93.4985 71.7543 93.2089 71.549 92.9815 71.285C92.7542 71.021 92.5892 70.7093 92.4865 70.35C92.3839 69.9833 92.3325 69.5837 92.3325 69.151ZM96.3695 68.7C96.3549 68.106 96.2155 67.644 95.9515 67.314C95.6875 66.984 95.3135 66.819 94.8295 66.819C94.5729 66.819 94.3419 66.8703 94.1365 66.973C93.9385 67.0757 93.7625 67.215 93.6085 67.391C93.4619 67.5597 93.3445 67.7577 93.2565 67.985C93.1759 68.2123 93.1282 68.4507 93.1135 68.7H96.3695ZM99.4149 70.977C99.4809 71.0283 99.5616 71.0833 99.6569 71.142C99.7596 71.2007 99.8769 71.2557 100.009 71.307C100.141 71.3583 100.284 71.4023 100.438 71.439C100.592 71.4683 100.753 71.483 100.922 71.483C101.274 71.483 101.567 71.4243 101.802 71.307C102.044 71.1823 102.238 71.0173 102.385 70.812C102.532 70.5993 102.638 70.3537 102.704 70.075C102.77 69.789 102.803 69.4883 102.803 69.173C102.803 68.425 102.616 67.853 102.242 67.457C101.868 67.0537 101.373 66.852 100.757 66.852C100.405 66.852 100.119 66.8703 99.8989 66.907C99.6862 66.9363 99.5249 66.9693 99.4149 67.006V70.977ZM99.4149 74.035H98.6999V66.511C98.9126 66.4377 99.1839 66.368 99.5139 66.302C99.8439 66.236 100.262 66.203 100.768 66.203C101.186 66.203 101.564 66.2727 101.901 66.412C102.246 66.544 102.539 66.7383 102.781 66.995C103.03 67.2517 103.221 67.5633 103.353 67.93C103.492 68.2967 103.562 68.711 103.562 69.173C103.562 69.6057 103.503 70.0053 103.386 70.372C103.276 70.7313 103.111 71.043 102.891 71.307C102.671 71.5637 102.4 71.7653 102.077 71.912C101.762 72.0587 101.399 72.132 100.988 72.132C100.614 72.132 100.288 72.0807 100.009 71.978C99.7376 71.868 99.5396 71.7653 99.4149 71.67V74.035ZM108.985 67.226C108.765 67.49 108.508 67.8237 108.215 68.227C107.929 68.6303 107.636 69.0557 107.335 69.503C107.042 69.9503 106.759 70.394 106.488 70.834C106.217 71.274 105.982 71.6627 105.784 72H105.113V66.313H105.817V70.867C105.993 70.5517 106.209 70.1887 106.466 69.778C106.73 69.36 107.009 68.942 107.302 68.524C107.595 68.0987 107.889 67.6917 108.182 67.303C108.483 66.9143 108.761 66.5843 109.018 66.313H109.689V72H108.985V67.226ZM113.373 71.483C113.651 71.483 113.893 71.4757 114.099 71.461C114.311 71.439 114.491 71.4133 114.638 71.384V69.382C114.557 69.3453 114.429 69.3087 114.253 69.272C114.077 69.228 113.835 69.206 113.527 69.206C113.351 69.206 113.167 69.2207 112.977 69.25C112.786 69.272 112.61 69.327 112.449 69.415C112.287 69.4957 112.155 69.6093 112.053 69.756C111.95 69.9027 111.899 70.097 111.899 70.339C111.899 70.5517 111.932 70.7313 111.998 70.878C112.071 71.0247 112.17 71.142 112.295 71.23C112.427 71.318 112.581 71.384 112.757 71.428C112.94 71.4647 113.145 71.483 113.373 71.483ZM113.307 66.181C113.681 66.181 113.996 66.236 114.253 66.346C114.517 66.4487 114.729 66.5953 114.891 66.786C115.052 66.9693 115.169 67.1893 115.243 67.446C115.316 67.7027 115.353 67.9813 115.353 68.282V71.868C115.279 71.89 115.173 71.9157 115.034 71.945C114.894 71.967 114.733 71.9927 114.55 72.022C114.366 72.0513 114.161 72.0733 113.934 72.088C113.714 72.11 113.486 72.121 113.252 72.121C112.951 72.121 112.672 72.088 112.416 72.022C112.166 71.956 111.946 71.8533 111.756 71.714C111.572 71.5673 111.426 71.384 111.316 71.164C111.213 70.9367 111.162 70.6617 111.162 70.339C111.162 70.031 111.22 69.767 111.338 69.547C111.455 69.327 111.62 69.1473 111.833 69.008C112.045 68.8613 112.298 68.755 112.592 68.689C112.885 68.623 113.204 68.59 113.549 68.59C113.651 68.59 113.758 68.5973 113.868 68.612C113.985 68.6193 114.095 68.634 114.198 68.656C114.308 68.6707 114.399 68.689 114.473 68.711C114.553 68.7257 114.608 68.7403 114.638 68.755V68.403C114.638 68.205 114.623 68.0143 114.594 67.831C114.564 67.6403 114.498 67.4717 114.396 67.325C114.3 67.171 114.161 67.05 113.978 66.962C113.802 66.8667 113.567 66.819 113.274 66.819C112.856 66.819 112.544 66.8483 112.339 66.907C112.133 66.9657 111.983 67.0133 111.888 67.05L111.789 66.423C111.913 66.3643 112.104 66.3093 112.361 66.258C112.625 66.2067 112.94 66.181 113.307 66.181ZM118.859 66.918V67.149C118.859 67.369 118.856 67.611 118.848 67.875C118.841 68.1317 118.826 68.3957 118.804 68.667C118.782 68.9383 118.746 69.2097 118.694 69.481C118.65 69.745 118.592 69.9943 118.518 70.229C118.438 70.471 118.335 70.702 118.21 70.922C118.093 71.1347 117.95 71.3253 117.781 71.494C117.62 71.6553 117.429 71.791 117.209 71.901C116.997 72.0037 116.755 72.0697 116.483 72.099L116.384 71.505C116.751 71.4243 117.044 71.274 117.264 71.054C117.492 70.834 117.679 70.5223 117.825 70.119C117.972 69.7157 118.064 69.2537 118.1 68.733C118.144 68.205 118.166 67.6293 118.166 67.006V66.313H121.664V72H120.949V66.918H118.859ZM128.408 69.162C128.408 69.6093 128.342 70.0163 128.21 70.383C128.086 70.7497 127.906 71.0613 127.671 71.318C127.444 71.5747 127.173 71.7763 126.857 71.923C126.542 72.0623 126.194 72.132 125.812 72.132C125.431 72.132 125.083 72.0623 124.767 71.923C124.452 71.7763 124.177 71.5747 123.942 71.318C123.715 71.0613 123.535 70.7497 123.403 70.383C123.279 70.0163 123.216 69.6093 123.216 69.162C123.216 68.7147 123.279 68.3077 123.403 67.941C123.535 67.5743 123.715 67.2627 123.942 67.006C124.177 66.742 124.452 66.5403 124.767 66.401C125.083 66.2543 125.431 66.181 125.812 66.181C126.194 66.181 126.542 66.2543 126.857 66.401C127.173 66.5403 127.444 66.742 127.671 67.006C127.906 67.2627 128.086 67.5743 128.21 67.941C128.342 68.3077 128.408 68.7147 128.408 69.162ZM127.649 69.162C127.649 68.4507 127.484 67.886 127.154 67.468C126.824 67.0427 126.377 66.83 125.812 66.83C125.248 66.83 124.8 67.0427 124.47 67.468C124.14 67.886 123.975 68.4507 123.975 69.162C123.975 69.8733 124.14 70.438 124.47 70.856C124.8 71.274 125.248 71.483 125.812 71.483C126.377 71.483 126.824 71.274 127.154 70.856C127.484 70.438 127.649 69.8733 127.649 69.162ZM131.797 66.192C132.017 66.192 132.262 66.2067 132.534 66.236C132.812 66.258 133.073 66.3203 133.315 66.423C133.557 66.5183 133.758 66.6723 133.92 66.885C134.088 67.0903 134.173 67.3727 134.173 67.732C134.173 68.0107 134.092 68.26 133.931 68.48C133.769 68.6927 133.549 68.8503 133.271 68.953C133.681 69.063 133.978 69.239 134.162 69.481C134.345 69.723 134.437 70.02 134.437 70.372C134.437 70.7533 134.36 71.0613 134.206 71.296C134.052 71.5233 133.846 71.6993 133.59 71.824C133.34 71.9413 133.054 72.0183 132.732 72.055C132.416 72.0917 132.094 72.11 131.764 72.11C131.368 72.11 131.019 72.0843 130.719 72.033C130.425 71.9817 130.172 71.9267 129.96 71.868V66.434C130.143 66.3753 130.385 66.3203 130.686 66.269C130.986 66.2177 131.357 66.192 131.797 66.192ZM130.675 68.7H131.973C132.413 68.7 132.768 68.6267 133.04 68.48C133.311 68.3333 133.447 68.0877 133.447 67.743C133.447 67.523 133.399 67.3507 133.304 67.226C133.208 67.1013 133.084 67.0097 132.93 66.951C132.776 66.885 132.6 66.8447 132.402 66.83C132.204 66.808 132.006 66.797 131.808 66.797C131.566 66.797 131.335 66.8117 131.115 66.841C130.895 66.863 130.748 66.885 130.675 66.907V68.7ZM130.675 69.294V71.384C130.711 71.3987 130.77 71.4133 130.851 71.428C130.939 71.4353 131.034 71.4463 131.137 71.461C131.247 71.4683 131.36 71.4757 131.478 71.483C131.602 71.4903 131.72 71.494 131.83 71.494C132.079 71.494 132.317 71.4793 132.545 71.45C132.772 71.4207 132.97 71.3657 133.139 71.285C133.307 71.197 133.443 71.0833 133.546 70.944C133.648 70.7973 133.7 70.6067 133.7 70.372C133.7 70.1667 133.656 69.9943 133.568 69.855C133.487 69.7157 133.37 69.6057 133.216 69.525C133.069 69.4443 132.893 69.3857 132.688 69.349C132.49 69.3123 132.273 69.294 132.039 69.294H130.675Z" fill="#E04E2C"/>
<defs>
<clipPath id="clip0_238_652">
<rect width="18" height="19.545" fill="white" transform="translate(59 12.1479)"/>
</clipPath>
</defs>
</svg>
