<svg width="20" height="20" viewBox="0 0 20 20" fill="none" xmlns="http://www.w3.org/2000/svg">
<path d="M3 4.75C3 3.7835 3.7835 3 4.75 3H7.55C8.5165 3 9.3 3.7835 9.3 4.75V7.55C9.3 8.5165 8.5165 9.3 7.55 9.3H4.75C3.7835 9.3 3 8.5165 3 7.55V4.75Z" fill="#A5A5A5"/>
<path d="M10.6992 4.75C10.6992 3.7835 11.4827 3 12.4492 3H15.2492C16.2157 3 16.9992 3.7835 16.9992 4.75V7.55C16.9992 8.5165 16.2157 9.3 15.2492 9.3H12.4492C11.4827 9.3 10.6992 8.5165 10.6992 7.55V4.75Z" fill="#A5A5A5"/>
<path d="M10.6992 12.45C10.6992 11.4835 11.4827 10.7 12.4492 10.7H15.2492C16.2157 10.7 16.9992 11.4835 16.9992 12.45V15.25C16.9992 16.2164 16.2157 17 15.2492 17H12.4492C11.4827 17 10.6992 16.2164 10.6992 15.25V12.45Z" fill="#A5A5A5"/>
<path d="M3 12.45C3 11.4835 3.7835 10.7 4.75 10.7H7.55C8.5165 10.7 9.3 11.4835 9.3 12.45V15.25C9.3 16.2165 8.5165 17 7.55 17H4.75C3.7835 17 3 16.2165 3 15.25V12.45Z" fill="#A5A5A5"/>
</svg>
